<?xml version="1.0" encoding="utf-8"?>
<!-- Generator: Adobe Illustrator 19.2.1, SVG Export Plug-In . SVG Version: 6.00 Build 0)  -->
<svg version="1.1" xmlns="http://www.w3.org/2000/svg" xmlns:xlink="http://www.w3.org/1999/xlink" x="0px" y="0px"
	 viewBox="0 0 166.2 164.4" style="enable-background:new 0 0 166.2 164.4;" xml:space="preserve">
<style type="text/css">
	.st0{fill:#FFFFFF;stroke:#CDCCC7;stroke-linecap:round;stroke-miterlimit:10;}
	.st1{fill:#DC2226;}
	.st2{fill:#FFFFFF;stroke:#FFFFFF;stroke-linecap:round;stroke-miterlimit:10;}
</style>
<g id="Calque_3">
	<circle class="st0" cx="82.4" cy="82.5" r="79.9"/>
</g>
<g id="Calque_1">
	<circle class="st1" cx="82.4" cy="82.5" r="71.9"/>
	<g>
		<polygon class="st2" points="83,32.3 36,48.8 43.4,110.3 83,132.1 122.8,110 130.2,48.5 		"/>
		<polygon class="st1" points="125.5,52.1 82.9,37.5 82.9,126.9 118.6,107.1 		"/>
		<polygon class="st1" points="41.3,52.3 47.7,107.3 82.9,126.9 82.9,37.5 		"/>
		<path class="st2" d="M94.6,85.1l-11.7,5.5H70.5l-5.8,14.6l-10.8,0.2l29-64.6L94.6,85.1z M93.5,82.3L82.9,61.5L74.3,82h8.6
			L93.5,82.3z"/>
		<polygon class="st2" points="82.9,40.8 82.9,61.5 92.7,82 82.9,82 82.9,90.6 96.5,90.6 102.9,105.3 113.2,105.5 		"/>
	</g>
</g>
<g id="Calque_2">
</g>
</svg>
