<?xml version="1.0" encoding="utf-8"?>
<!-- Generator: Adobe Illustrator 19.2.1, SVG Export Plug-In . SVG Version: 6.00 Build 0)  -->
<svg version="1.1" xmlns="http://www.w3.org/2000/svg" xmlns:xlink="http://www.w3.org/1999/xlink" x="0px" y="0px"
	 viewBox="0 0 166.2 164.4" style="enable-background:new 0 0 166.2 164.4;" xml:space="preserve">
<style type="text/css">
	.st0{fill:#FFFFFF;stroke:#CDCCC7;stroke-linecap:round;stroke-miterlimit:10;}
	.st1{fill:#602C4E;}
	.st2{fill:#FFFFFF;}
</style>
<g id="Calque_3">
	<circle class="st0" cx="82.4" cy="82.5" r="79.9"/>
</g>
<g id="Calque_1">
	<circle class="st1" cx="82.4" cy="82.5" r="71.9"/>
	<g>
		<path class="st2" d="M57.4,47h33.1c18.7,0,22.8,13.3,22.8,18.6c0,10.6-6,13.4-9,14.6c4.6,1.3,12,5.2,12,18.7
			c0,3.9-0.5,19.1-24.9,19.1h-34V47z M75.8,74.8h10.1c7.5,0,8.2-4.9,8.2-7.2c0-2.2-1.4-6.9-8.1-6.9H75.8V74.8z M75.8,105.6h11.6
			c9.6,0,10.2-6.8,10.2-9.1c0-2.2-0.8-9-10.2-9H75.8V105.6z"/>
	</g>
</g>
<g id="Calque_2">
</g>
</svg>
