<?xml version="1.0" encoding="utf-8"?>
<!-- Generator: Adobe Illustrator 19.2.1, SVG Export Plug-In . SVG Version: 6.00 Build 0)  -->
<svg version="1.1" xmlns="http://www.w3.org/2000/svg" xmlns:xlink="http://www.w3.org/1999/xlink" x="0px" y="0px"
	 viewBox="0 0 166.2 164.4" style="enable-background:new 0 0 166.2 164.4;" xml:space="preserve">
<style type="text/css">
	.st0{fill:#FFFFFF;stroke:#CDCCC7;stroke-linecap:round;stroke-miterlimit:10;}
	.st1{fill:#5E98CF;}
	.st2{fill:#FFFFFF;}
</style>
<g id="Calque_3">
	<circle class="st0" cx="82.4" cy="82.5" r="79.9"/>
</g>
<g id="Calque_1">
	<circle class="st1" cx="82.4" cy="82.5" r="71.9"/>
	<g>
		<polygon class="st2" points="126.5,75.6 121.9,75.6 121.9,80.2 117.3,80.2 117.3,84.8 121.9,84.8 121.9,89.4 126.5,89.4 
			126.5,84.8 131.1,84.8 131.1,80.2 126.5,80.2 		"/>
		<polygon class="st2" points="109.7,75.6 105.1,75.6 105.1,80.2 100.5,80.2 100.5,84.8 105.1,84.8 105.1,89.4 109.7,89.4 
			109.7,84.8 114.3,84.8 114.3,80.2 109.7,80.2 		"/>
		<path class="st2" d="M91.3,92.3c-3.4,6.1-10,10.2-17.4,10.2c-7.4,0-13.9-4.1-17.4-10.1c-1.7-2.9-2.6-6.3-2.6-9.9c0-11,9-20,20-20
			c7.4,0,13.8,4,17.3,10l17.5-10.1c-6.9-12-19.9-20.1-34.8-20.1c-22.2,0-40.2,18-40.2,40.2c0,7.3,1.9,14.1,5.3,20
			c6.9,12.1,19.9,20.2,34.9,20.2c14.9,0,28-8.2,34.9-20.3L91.3,92.3z"/>
	</g>
</g>
<g id="Calque_2">
</g>
</svg>
