<?xml version="1.0" encoding="utf-8"?>
<!-- Generator: Adobe Illustrator 19.2.1, SVG Export Plug-In . SVG Version: 6.00 Build 0)  -->
<svg version="1.1" xmlns="http://www.w3.org/2000/svg" xmlns:xlink="http://www.w3.org/1999/xlink" x="0px" y="0px"
	 viewBox="0 0 166.2 164.4" style="enable-background:new 0 0 166.2 164.4;" xml:space="preserve">
<style type="text/css">
	.st0{fill:#FFFFFF;stroke:#CDCCC7;stroke-linecap:round;stroke-miterlimit:10;}
	.st1{fill:#1071B9;}
	.st2{fill:#FFFFFF;}
</style>
<g id="Calque_3">
	<circle class="st0" cx="82.4" cy="82.5" r="79.9"/>
</g>
<g id="Calque_1">
	<circle class="st1" cx="82.4" cy="82.5" r="71.9"/>
	<g id="_x23_0170baff">
		<path class="st2" d="M45,41.6c26.5,0,53,0,79.5,0c-1.5,16.5-2.9,33-4.4,49.5c-0.9,10.5-1.8,21.1-2.8,31.6
			c-5.7,1.5-11.3,3.2-16.9,4.7c-5.2,1.5-10.4,2.9-15.6,4.4h-0.2c-4.9-1.5-9.9-2.8-14.9-4.2c-5.8-1.6-11.6-3.3-17.5-4.9
			c-0.8-7.9-1.4-15.8-2.1-23.7c-1.3-14.6-2.7-29.2-3.9-43.8c-0.4-4.4-0.7-8.8-1.2-13.2V41.6 M84.9,48.1c-0.1,3.2,0,6.3-0.1,9.5
			c-9.1,0-18.2,0-27.3,0c0.2,3.1,0.6,6.1,1,9.2c8.5,0.3,16.9,0,25.4,0.2c-7.4,3.3-14.9,6.4-22.3,9.7c-0.6,0.3-1.3,0.5-1.9,0.9
			c0.1,3.4,0.6,6.7,0.8,10.1c4.5,0,9-0.1,13.5-0.1c3.6,0,7.2,0.1,10.8,0c-0.2,5.6,0.1,11.1-0.1,16.7c-2.4-0.4-4.8-0.9-7.3-1.3
			c-1.9-0.4-3.9-0.6-5.8-1.2c-0.3-2.7-0.5-5.3-0.7-8c-0.5-0.2-1.1-0.2-1.7-0.2c-2.7,0-5.5,0-8.2,0c0.3,5.1,0.7,10.2,1.5,15.3
			c2.7,0.7,5.4,1.4,8.1,2.1c4.1,1.1,8.3,2.1,12.4,3.2c0.5,0.1,1,0.3,1.5,0.2c0.3,3.4,0.1,6.8,0.1,10.1c1-0.2,1.9-0.4,2.8-0.7
			c7.8-2.1,15.6-4.3,23.4-6.4c0.4-3.1,0.6-6.2,0.9-9.2c0.8-9.4,1.6-18.7,2.5-28.1c1-10.7,1.9-21.4,2.9-32.1
			C106.5,48.1,95.7,48,84.9,48.1z"/>
	</g>
	<g id="_x23_29a9dfff">
		<path class="st2" d="M84.9,48.1c10.8,0,21.6,0,32.4,0c-1,10.7-1.9,21.4-2.9,32.1c-0.9,9.4-1.7,18.7-2.5,28.1
			c-0.3,3.1-0.5,6.2-0.9,9.2c-7.8,2.1-15.6,4.3-23.4,6.4c-0.9,0.3-1.9,0.5-2.8,0.7c-0.1-3.4,0.2-6.8-0.1-10.1c0.1,0,0.2,0,0.3-0.1
			c7.3-1.8,14.5-3.8,21.7-5.7c0.9-10.3,1.9-20.6,2.6-30.9c-6.2,0-12.3,0-18.5,0c-0.9,0-1.8,0-2.7-0.1c3.3-1.7,6.8-3.1,10.2-4.6
			c3.3-1.5,6.6-2.9,9.9-4.3c0.6-0.3,1.3-0.5,1.9-1c0.2-0.8,0.2-1.6,0.3-2.5c0.2-2.6,0.5-5.2,0.6-7.8c-8.7-0.1-17.5,0-26.2-0.1
			C85,54.4,84.9,51.2,84.9,48.1z"/>
		<path class="st2" d="M85,87.6c4.2-0.1,8.4,0,12.7,0c-0.2,4.3-0.6,8.6-0.8,12.9c-2.6,0.8-5.2,1.6-7.8,2.3c-1.4,0.4-2.8,0.8-4.1,1.4
			C85,98.7,84.8,93.1,85,87.6z"/>
	</g>
</g>
<g id="Calque_2">
</g>
</svg>
