<?xml version="1.0" encoding="utf-8"?>
<!-- Generator: Adobe Illustrator 19.2.1, SVG Export Plug-In . SVG Version: 6.00 Build 0)  -->
<svg version="1.1" xmlns="http://www.w3.org/2000/svg" xmlns:xlink="http://www.w3.org/1999/xlink" x="0px" y="0px"
	 viewBox="0 0 166.2 164.4" style="enable-background:new 0 0 166.2 164.4;" xml:space="preserve">
<style type="text/css">
	.st0{fill:#FFFFFF;stroke:#CDCCC7;stroke-linecap:round;stroke-miterlimit:10;}
	.st1{fill:#9C5097;}
	.st2{fill:#FFFFFF;}
</style>
<g id="Calque_3">
	<circle class="st0" cx="82.4" cy="82.5" r="79.9"/>
</g>
<g id="Calque_1">
	<circle class="st1" cx="82.4" cy="82.5" r="71.9"/>
	<path id="path12299" class="st2" d="M32.9,100.3c0,0.9-0.3,1.7-1,2.3c-0.6,0.7-1.4,1-2.4,1c-0.9,0-1.7-0.3-2.3-1
		c-0.6-0.7-0.9-1.4-0.9-2.3c0-0.9,0.3-1.7,0.9-2.4c0.6-0.7,1.4-1,2.3-1c0.9,0,1.7,0.3,2.4,1C32.6,98.6,32.9,99.4,32.9,100.3"/>
	<path id="path12303" class="st2" d="M74.2,103h-6L46.3,69.3c-0.5-0.8-0.9-1.7-1.3-2.7h-0.2c0.2,0.9,0.2,2.8,0.2,5.8V103h-5V60.7
		h6.4l21.2,33.2c0.8,1.3,1.4,2.3,1.7,2.8h0.1c-0.2-1.2-0.3-3.3-0.3-6.2V60.7h4.9L74.2,103L74.2,103z"/>
	<path id="path12307" class="st2" d="M105.9,103H83.5V60.7H105v4.5H88.5v14.1h15.3v4.5H88.5v14.8h17.4V103z"/>
	<path id="path12311" class="st2" d="M139.9,65.2h-12.2V103h-5V65.2h-12.2v-4.5h29.3L139.9,65.2L139.9,65.2z"/>
</g>
<g id="Calque_2">
</g>
</svg>
