<?xml version="1.0" encoding="utf-8"?>
<!-- Generator: Adobe Illustrator 19.2.1, SVG Export Plug-In . SVG Version: 6.00 Build 0)  -->
<svg version="1.1" xmlns="http://www.w3.org/2000/svg" xmlns:xlink="http://www.w3.org/1999/xlink" x="0px" y="0px"
	 viewBox="0 0 166.2 164.4" style="enable-background:new 0 0 166.2 164.4;" xml:space="preserve">
<style type="text/css">
	.st0{fill:#FFFFFF;stroke:#CDCCC7;stroke-linecap:round;stroke-miterlimit:10;}
	.st1{fill:#F04F29;}
	.st2{fill:#FFFFFF;}
</style>
<g id="Calque_3">
	<circle class="st0" cx="82.4" cy="82.5" r="79.9"/>
</g>
<g id="Calque_1">
	<circle class="st1" cx="82.4" cy="82.5" r="71.9"/>
	<g>
		<path class="st2" d="M127.3,78.4L87.2,38.3c-2.3-2.3-6.1-2.3-8.4,0l-8.3,8.3l10.6,10.6c2.5-0.8,5.3-0.3,7.2,1.7
			c2,2,2.5,4.8,1.7,7.3l10.2,10.2c2.5-0.8,5.3-0.3,7.3,1.7c2.8,2.7,2.8,7.2,0,10c-2.8,2.8-7.2,2.8-10,0c-2.1-2.1-2.6-5.1-1.5-7.7
			l-9.5-9.5v25c0.7,0.3,1.3,0.8,1.9,1.3c2.8,2.7,2.8,7.2,0,10c-2.8,2.7-7.2,2.7-10,0c-2.8-2.8-2.8-7.2,0-10c0.7-0.7,1.5-1.2,2.3-1.5
			V70.4c-0.8-0.3-1.6-0.9-2.3-1.5c-2.1-2.1-2.6-5.1-1.5-7.7L66.4,50.8L38.9,78.3c-2.3,2.3-2.3,6.1,0,8.4L79,126.7
			c2.3,2.3,6.1,2.3,8.4,0l39.9-39.9C129.6,84.5,129.6,80.8,127.3,78.4z"/>
	</g>
</g>
<g id="Calque_2">
</g>
</svg>
