<?xml version="1.0" encoding="utf-8"?>
<!-- Generator: Adobe Illustrator 19.2.1, SVG Export Plug-In . SVG Version: 6.00 Build 0)  -->
<svg version="1.1" xmlns="http://www.w3.org/2000/svg" xmlns:xlink="http://www.w3.org/1999/xlink" x="0px" y="0px"
	 viewBox="0 0 166.2 164.4" style="enable-background:new 0 0 166.2 164.4;" xml:space="preserve">
<style type="text/css">
	.st0{fill:#FFFFFF;stroke:#CDCCC7;stroke-linecap:round;stroke-miterlimit:10;}
	.st1{fill:#E92F30;}
	.st2{fill:#FFFFFF;}
</style>
<g id="Calque_3">
	<circle class="st0" cx="82.4" cy="82.5" r="79.9"/>
</g>
<g id="Calque_1">
	<circle class="st1" cx="82.4" cy="82.5" r="71.9"/>
	<path class="st2" d="M69.4,110.8c0,0-4,2.3,2.8,3.1c8.3,0.9,12.5,0.8,21.7-0.9c0,0,2.4,1.5,5.8,2.8
		C79.2,124.5,53.3,115.3,69.4,110.8L69.4,110.8z"/>
	<path class="st2" d="M66.9,99.3c0,0-4.5,3.3,2.4,4c8.9,0.9,15.8,1,27.9-1.3c0,0,1.7,1.7,4.3,2.6C76.8,111.9,49.2,105.2,66.9,99.3
		L66.9,99.3z"/>
	<path class="st2" d="M88,79.9c5,5.8-1.3,11-1.3,11s12.8-6.6,6.9-14.9c-5.5-7.7-9.7-11.6,13.1-24.8C106.7,51.2,70.9,60.2,88,79.9
		L88,79.9z"/>
	<path class="st2" d="M115.1,119.2c0,0,3,2.4-3.3,4.3c-11.8,3.6-49.2,4.7-59.6,0.1c-3.7-1.6,3.3-3.9,5.5-4.4
		c2.3-0.5,3.6-0.4,3.6-0.4c-4.2-2.9-26.8,5.7-11.5,8.2C91.5,133.9,125.9,124.1,115.1,119.2L115.1,119.2z"/>
	<path class="st2" d="M71.3,87.5c0,0-19,4.5-6.7,6.2c5.2,0.7,15.5,0.5,25.1-0.3c7.9-0.7,15.8-2.1,15.8-2.1s-2.8,1.2-4.8,2.6
		c-19.3,5.1-56.6,2.7-45.9-2.5C63.9,87,71.3,87.5,71.3,87.5L71.3,87.5z"/>
	<path class="st2" d="M105.4,106.5c19.6-10.2,10.6-20,4.2-18.7c-1.5,0.3-2.2,0.6-2.2,0.6s0.6-0.9,1.7-1.3c12.5-4.4,22.2,13-4,19.9
		C105,107,105.3,106.8,105.4,106.5L105.4,106.5z"/>
	<path class="st2" d="M93.6,29.9c0,0,10.9,10.9-10.3,27.6c-17,13.4-3.9,21.1,0,29.8C73.4,78.3,66.1,70.4,71,63.1
		C78.1,52.4,98,47.1,93.6,29.9L93.6,29.9z"/>
	<path class="st2" d="M73.2,134.1c18.8,1.2,47.8-0.7,48.4-9.6c0,0-1.3,3.4-15.6,6.1c-16.1,3-35.9,2.7-47.7,0.7
		C58.5,131.4,60.9,133.4,73.2,134.1L73.2,134.1z"/>
</g>
<g id="Calque_2">
</g>
</svg>
