<?xml version="1.0" encoding="utf-8"?>
<!-- Generator: Adobe Illustrator 19.2.1, SVG Export Plug-In . SVG Version: 6.00 Build 0)  -->
<svg version="1.1" id="Calque_1" xmlns="http://www.w3.org/2000/svg" xmlns:xlink="http://www.w3.org/1999/xlink" x="0px" y="0px"
	 viewBox="0 0 166.2 164.4" style="enable-background:new 0 0 166.2 164.4;" xml:space="preserve">
<style type="text/css">
	.st0{fill:#FFFFFF;stroke:#CDCCC7;stroke-linecap:round;stroke-miterlimit:10;}
	.st1{fill:#F0543F;stroke:#F0543F;stroke-linecap:round;stroke-miterlimit:10;}
	.st2{fill:#FFFFFF;}
</style>
<g id="Calque_3">
	<circle class="st0" cx="82.4" cy="82.5" r="79.9"/>
</g>
<g id="Calque_1_1_">
	<circle class="st1" cx="82.4" cy="82.5" r="71.9"/>
</g>
<g id="Calque_2">
	<path class="st2" d="M129.6,80c-0.6-0.7-9.3-11.6-10.9-13.5c-1.5-1.9-2.3-1.5-3.2-1.4s-12,2-13.2,2.2c-1.3,0.2-2.1,0.7-1.3,1.8
		c0.7,1,7.9,11.3,9.5,13.5l-28.8,6.9l-23-38.2c-0.9-1.4-1.1-1.8-3.2-1.7c-2.1,0.1-18,1.4-19.1,1.5s-2.4,0.6-1.2,3.3
		c1.1,2.7,19.2,41.6,19.7,42.7s1.8,3,4.9,2.2c3.1-0.8,14-3.6,20-5.2c3.1,5.7,9.6,17.2,10.7,18.9c1.6,2.2,2.7,1.8,5.1,1.1
		c1.9-0.6,29.7-10.6,30.9-11.1c1.3-0.5,2-0.9,1.2-2.1c-0.6-0.9-8-10.7-11.8-15.9c2.6-0.7,12-3.2,13-3.5
		C130,81.3,130.2,80.7,129.6,80z M77.2,90.7c-0.3,0.1-16.5,3.9-17.3,4.1c-0.9,0.2-0.9,0.1-1-0.2C58.8,94.4,39.7,55,39.5,54.5
		s-0.3-0.9,0-0.9s15.2-1.3,15.8-1.4s0.5,0.1,0.7,0.4c0,0,21.1,36.5,21.5,37.1S77.5,90.7,77.2,90.7z M122.7,99.3
		c0.3,0.4,0.5,0.7-0.3,1s-27.3,9.2-27.8,9.5S93.7,110,93,109s-9.3-15.9-9.3-15.9l28.1-7.3c0.7-0.2,0.9-0.4,1.4,0.3
		C113.6,86.9,122.4,98.9,122.7,99.3z M124.5,79.3c-0.6,0.1-10.9,2.7-10.9,2.7l-8.4-11.6c-0.2-0.3-0.4-0.7,0.2-0.7
		c0.6-0.1,10.2-1.8,10.6-1.9s0.8-0.2,1.3,0.5s7.8,10,8.1,10.3C125.6,79,125.1,79.2,124.5,79.3z"/>
</g>
</svg>
