<?xml version="1.0" encoding="utf-8"?>
<!-- Generator: Adobe Illustrator 19.2.1, SVG Export Plug-In . SVG Version: 6.00 Build 0)  -->
<svg version="1.1" xmlns="http://www.w3.org/2000/svg" xmlns:xlink="http://www.w3.org/1999/xlink" x="0px" y="0px"
	 viewBox="0 0 166.2 164.4" style="enable-background:new 0 0 166.2 164.4;" xml:space="preserve">
<style type="text/css">
	.st0{fill:#FFFFFF;stroke:#CDCCC7;stroke-linecap:round;stroke-miterlimit:10;}
	.st1{fill:#E92126;}
	.st2{fill:#FFFFFF;}
</style>
<g id="Calque_3">
	<circle class="st0" cx="82.4" cy="82.5" r="79.9"/>
</g>
<g id="Calque_1">
	<circle class="st1" cx="82.4" cy="82.5" r="71.9"/>
	<g id="layer1" transform="translate(-702.6538,-712.5837)">
		<g id="g16337">
			<path id="path16197" class="st2" d="M777.1,796.8h6.6l-3.5-5.6l-6.4,10.1h-2.9l7.8-12.2c0.3-0.5,0.9-0.8,1.5-0.8
				c0.6,0,1.2,0.3,1.5,0.8l7.8,12.2h-2.9l-1.4-2.3h-6.7L777.1,796.8z M807.3,799v-10.6h-2.5v11.6c0,0.3,0.1,0.6,0.4,0.9
				s0.6,0.4,0.9,0.4h11.2l1.5-2.3H807.3z M766.5,797.1c2.4,0,4.3-1.9,4.3-4.3c0-2.4-1.9-4.3-4.3-4.3h-10.8v12.8h2.5v-10.6h8.2
				c1.1,0,2.1,0.9,2.1,2.1c0,1.1-0.9,2.1-2.1,2.1l-7,0l7.4,6.4h3.6l-5-4.2H766.5z M740.6,801.3c-3.5,0-6.4-2.9-6.4-6.4
				s2.9-6.4,6.4-6.4h7.5c3.5,0,6.4,2.9,6.4,6.4s-2.9,6.4-6.4,6.4H740.6z M747.8,799c2.3,0,4.2-1.9,4.2-4.1s-1.9-4.2-4.2-4.2h-7.1
				c-2.3,0-4.2,1.9-4.2,4.2s1.9,4.1,4.2,4.1H747.8z M794.7,801.3c-3.5,0-6.4-2.9-6.4-6.4s2.9-6.4,6.4-6.4h8.9l-1.4,2.3h-7.2
				c-2.3,0-4.2,1.9-4.2,4.2s1.9,4.1,4.2,4.1h8.9l-1.5,2.3H794.7z M824.8,799c-1.9,0-3.5-1.3-4-3h10.5l1.5-2.3h-12c0.5-1.7,2.1-3,4-3
				h7.2l1.5-2.3h-8.9c-3.5,0-6.4,2.9-6.4,6.4s2.9,6.4,6.4,6.4h7.6l1.5-2.3H824.8"/>
			<path id="path16199" class="st2" d="M834.8,789.8c0-0.6,0.5-1.1,1.1-1.1c0.6,0,1.1,0.5,1.1,1.1c0,0.6-0.5,1.1-1.1,1.1
				C835.3,791,834.8,790.5,834.8,789.8z M836,791.3c0.8,0,1.4-0.6,1.4-1.4s-0.6-1.4-1.4-1.4c-0.8,0-1.4,0.6-1.4,1.4
				S835.2,791.3,836,791.3z M835.8,789c0.2,0,0.3,0,0.4,0.1c0.3,0.1,0.3,0.3,0.3,0.5c0,0,0,0.1,0,0.1c0,0.1-0.1,0.2-0.2,0.3
				c0,0,0,0-0.1,0l0.4,0.7h-0.4L836,790h-0.2v0.6h-0.3V789H835.8z M835.9,789.7c0.1,0,0.2,0,0.3-0.1c0,0,0-0.1,0-0.1
				c0-0.1-0.1-0.2-0.1-0.2c-0.1,0-0.1,0-0.3,0h-0.1v0.5H835.9"/>
		</g>
	</g>
</g>
<g id="Calque_2">
</g>
</svg>
