<?xml version="1.0" encoding="utf-8"?>
<!-- Generator: Adobe Illustrator 19.2.1, SVG Export Plug-In . SVG Version: 6.00 Build 0)  -->
<svg version="1.1" id="Calque_1" xmlns="http://www.w3.org/2000/svg" xmlns:xlink="http://www.w3.org/1999/xlink" x="0px" y="0px"
	 viewBox="0 0 166.2 164.4" style="enable-background:new 0 0 166.2 164.4;" xml:space="preserve">
<style type="text/css">
	.st0{fill:#FFFFFF;stroke:#CDCCC7;stroke-linecap:round;stroke-miterlimit:10;}
	.st1{fill:#2C3E50;stroke:#2C3E50;stroke-linecap:round;stroke-miterlimit:10;}
	.st2{fill:#FFFFFF;}
</style>
<g id="Calque_3">
	<circle class="st0" cx="82.4" cy="82.5" r="79.9"/>
</g>
<g id="Calque_1_1_">
	<circle class="st1" cx="82.4" cy="82.5" r="71.9"/>
</g>
<g id="Calque_2">
	<g id="g3478">
		<g id="g3484" transform="translate(161.7344,145.3066)">
			<path id="path3486" class="st2" d="M-116.8-55.5c3.4,0,5.9-0.6,7.5-1.9c1.6-1.2,2.7-3.3,3.3-6.3c0.5-2.8,0.3-4.7-0.6-5.7
				c-1-1.1-3-1.6-6.2-1.6h-5.4l-3,15.5H-116.8z M-134.6-36.4c-0.3,0-0.5-0.1-0.7-0.3s-0.2-0.4-0.2-0.7l8-41c0.1-0.4,0.4-0.7,0.8-0.7
				h17.2c5.4,0,9.4,1.5,11.9,4.4s3.3,7,2.3,12.1c-0.4,2.1-1.1,4-2.1,5.7s-2.2,3.3-3.8,4.8c-1.9,1.7-4,3-6.2,3.7s-5.1,1.1-8.6,1.1
				h-6.9l-2,10.2c-0.1,0.4-0.4,0.7-0.8,0.7C-125.7-36.4-134.6-36.4-134.6-36.4z"/>
		</g>
		<g id="g3492" transform="translate(311.583,116.3066)">
			<path id="path3494" class="st2" d="M-224.6-18.3c-0.3,0-0.5-0.1-0.7-0.3c-0.2-0.2-0.2-0.4-0.2-0.7l3.5-18.1
				c0.3-1.7,0.3-3-0.2-3.5c-0.3-0.3-1.2-0.9-3.8-0.9h-6.4l-4.4,22.8c-0.1,0.4-0.4,0.7-0.8,0.7h-8.9c-0.3,0-0.5-0.1-0.7-0.3
				c-0.2-0.2-0.2-0.4-0.2-0.7l8-41c0.1-0.4,0.4-0.7,0.8-0.7h8.9c0.3,0,0.5,0.1,0.7,0.3s0.2,0.4,0.2,0.7l-1.9,9.9h6.9
				c5.2,0,8.8,0.9,10.8,2.8c2.1,1.9,2.8,5,2,9.2l-3.7,19.1c-0.1,0.4-0.4,0.7-0.8,0.7C-215.5-18.3-224.6-18.3-224.6-18.3z"/>
		</g>
		<g id="g3500" transform="translate(409.5498,145.3066)">
			<path id="path3502" class="st2" d="M-295-55.5c3.4,0,5.9-0.6,7.5-1.9c1.6-1.2,2.7-3.3,3.3-6.3c0.5-2.8,0.3-4.7-0.6-5.7
				c-1-1.1-3-1.6-6.2-1.6h-5.4l-3,15.5H-295z M-312.7-36.4c-0.3,0-0.5-0.1-0.7-0.3s-0.2-0.4-0.2-0.7l8-41c0.1-0.4,0.4-0.7,0.8-0.7
				h17.2c5.4,0,9.4,1.5,11.9,4.4s3.3,7,2.3,12.1c-0.4,2.1-1.1,4-2.1,5.7s-2.2,3.3-3.8,4.8c-1.9,1.7-4,3-6.2,3.7s-5.1,1.1-8.6,1.1
				h-6.9l-2,10.2c-0.1,0.4-0.4,0.7-0.8,0.7C-303.8-36.4-312.7-36.4-312.7-36.4z"/>
		</g>
	</g>
</g>
</svg>
