<?xml version="1.0" encoding="utf-8"?>
<!-- Generator: Adobe Illustrator 19.2.1, SVG Export Plug-In . SVG Version: 6.00 Build 0)  -->
<svg version="1.1" xmlns="http://www.w3.org/2000/svg" xmlns:xlink="http://www.w3.org/1999/xlink" x="0px" y="0px"
	 viewBox="0 0 166.2 164.4" style="enable-background:new 0 0 166.2 164.4;" xml:space="preserve">
<style type="text/css">
	.st0{fill:#FFFFFF;stroke:#CDCCC7;stroke-linecap:round;stroke-miterlimit:10;}
	.st1{fill:url(#SVGID_1_);}
	.st2{fill:#FFFFFF;}
</style>
<g id="Calque_3">
	<circle class="st0" cx="82.4" cy="82.5" r="79.9"/>
</g>
<g id="Calque_1">
	<linearGradient id="SVGID_1_" gradientUnits="userSpaceOnUse" x1="10.4262" y1="82.5376" x2="154.2798" y2="82.5376">
		<stop  offset="0" style="stop-color:#FFD43D"/>
		<stop  offset="1" style="stop-color:#FEE875"/>
	</linearGradient>
	<circle class="st1" cx="82.4" cy="82.5" r="71.9"/>
	<path id="path1948" class="st2" d="M82.6,34.4c-3.9,0-7.6,0.4-10.9,0.9C62,37,60.3,40.6,60.3,47.2v8.7h22.8v2.9H60.3h-8.6
		c-6.6,0-12.4,4-14.2,11.6c-2.1,8.7-2.2,14.1,0,23.2c1.6,6.8,5.5,11.6,12.1,11.6h7.8V94.6c0-7.5,6.5-14.2,14.2-14.2h22.8
		c6.3,0,11.4-5.2,11.4-11.6V47.2c0-6.2-5.2-10.8-11.4-11.9C90.5,34.6,86.5,34.4,82.6,34.4z M70.2,41.4c2.4,0,4.3,2,4.3,4.4
		c0,2.4-1.9,4.3-4.3,4.3c-2.4,0-4.3-1.9-4.3-4.3C65.9,43.3,67.9,41.4,70.2,41.4z"/>
	<path id="path1950" class="st2" d="M108.7,58.7v10.1c0,7.9-6.7,14.5-14.2,14.5H71.7c-6.2,0-11.4,5.3-11.4,11.6v21.7
		c0,6.2,5.4,9.8,11.4,11.6c7.2,2.1,14.1,2.5,22.8,0c5.7-1.7,11.4-5,11.4-11.6V108H83.1v-2.9h22.8h11.4c6.6,0,9.1-4.6,11.4-11.6
		c2.4-7.1,2.3-14,0-23.2c-1.6-6.6-4.8-11.6-11.4-11.6H108.7z M95.9,113.8c2.4,0,4.3,1.9,4.3,4.3c0,2.4-1.9,4.4-4.3,4.4
		c-2.4,0-4.3-2-4.3-4.4C91.6,115.7,93.5,113.8,95.9,113.8z"/>
</g>
<g id="Calque_2">
</g>
</svg>
