<?xml version="1.0" encoding="utf-8"?>
<!-- Generator: Adobe Illustrator 19.2.1, SVG Export Plug-In . SVG Version: 6.00 Build 0)  -->
<svg version="1.1" xmlns="http://www.w3.org/2000/svg" xmlns:xlink="http://www.w3.org/1999/xlink" x="0px" y="0px"
	 viewBox="0 0 166.2 164.4" style="enable-background:new 0 0 166.2 164.4;" xml:space="preserve">
<style type="text/css">
	.st0{fill:#FFFFFF;stroke:#CDCCC7;stroke-linecap:round;stroke-miterlimit:10;}
	.st1{fill:#993333;stroke:#993333;stroke-linecap:round;stroke-miterlimit:10;}
	.st2{fill:#FFFFFF;}
</style>
<g id="Calque_3">
	<circle class="st0" cx="82.4" cy="82.5" r="79.9"/>
</g>
<g id="Calque_1">
	<circle class="st1" cx="82.4" cy="82.5" r="71.9"/>
	<g>
		<path class="st2" d="M45.2,129.7c4.6-88.7,57.8-102.1,84.1-75.8l-1.4,3.2c-42-22.6-55,41.1-36.5,72.5H45.2z"/>
		<path class="st2" d="M117.2,54.4v2.8l4.6,0.5v-2.3L117.2,54.4z M117.7,41v2.8l5.1,3.2v-2.3L117.7,41z M102.5,56.7l4.2-1.4l1.4,4.2
			l-3.7,1.4L102.5,56.7z M94.1,35.4h6.5L102,40h-6L94.1,35.4z M95.1,62.7l3.2,5.1L96,71l-3.7-5.1L95.1,62.7z M79.4,38.2l3.7,5.5
			L78,47l-4.2-5.5L79.4,38.2z M87.7,77l-1.4,5.1l5.1,3.7l0.9-4.6L87.7,77z M59.5,52.5l6,5.1l-4.2,6l-6-4.6L59.5,52.5z M84.9,93.6
			v5.5l6.9,2.3l-0.5-5.1L84.9,93.6z M44.7,76.5l7.4,3.2l-2.3,6.9l-7.9-2.8L44.7,76.5z M87.7,114.4l1.8,6l8.3,0.9l-1.8-5.5
			L87.7,114.4z M35.9,105.6l8.3,1.4l-0.9,8.8l-9.2-0.9L35.9,105.6z"/>
	</g>
</g>
<g id="Calque_2">
</g>
</svg>
