<?xml version="1.0" encoding="utf-8"?>
<!-- Generator: Adobe Illustrator 19.2.1, SVG Export Plug-In . SVG Version: 6.00 Build 0)  -->
<svg version="1.1" xmlns="http://www.w3.org/2000/svg" xmlns:xlink="http://www.w3.org/1999/xlink" x="0px" y="0px"
	 viewBox="0 0 166.2 164.4" style="enable-background:new 0 0 166.2 164.4;" xml:space="preserve">
<style type="text/css">
	.st0{fill:#FFFFFF;stroke:#CDCCC7;stroke-linecap:round;stroke-miterlimit:10;}
	.st1{fill:#EE3A2C;}
	.st2{fill:#FFFFFF;}
</style>
<g id="Calque_3">
	<circle class="st0" cx="82.4" cy="82.5" r="79.9"/>
</g>
<g id="Calque_1">
	<circle class="st1" cx="82.4" cy="82.5" r="71.9"/>
	<path class="st2" d="M107.2,120.2c-11.5,6.6-27.3,7.3-43.2,0.5c-12.9-5.5-23.6-15.1-30.4-26c3.3,2.7,7.1,4.9,11.2,6.8
		c16.4,7.7,32.8,7.2,44.4,0c0,0,0,0,0,0c-16.4-12.6-30.4-29-40.8-42.5c-2.2-2.2-3.8-4.9-5.5-7.4c12.6,11.5,32.6,26,39.7,30.1
		C67.5,65.9,54.1,46.2,54.7,46.8c23.8,24.1,46,37.8,46,37.8c0.7,0.4,1.3,0.8,1.8,1.1c0.5-1.2,0.9-2.5,1.3-3.8
		c3.8-14-0.5-29.9-10.1-43c22.2,13.4,35.3,38.6,29.9,59.7c-0.1,0.6-0.3,1.1-0.5,1.7c0.1,0.1,0.1,0.2,0.2,0.2
		c11,13.7,7.9,28.2,6.6,25.5C123.8,114.3,112.8,117.8,107.2,120.2L107.2,120.2z"/>
</g>
<g id="Calque_2">
</g>
</svg>
