<?xml version="1.0" encoding="utf-8"?>
<!-- Generator: Adobe Illustrator 19.2.1, SVG Export Plug-In . SVG Version: 6.00 Build 0)  -->
<svg version="1.1" xmlns="http://www.w3.org/2000/svg" xmlns:xlink="http://www.w3.org/1999/xlink" x="0px" y="0px"
	 viewBox="0 0 166.2 164.4" style="enable-background:new 0 0 166.2 164.4;" xml:space="preserve">
<style type="text/css">
	.st0{fill:#FFFFFF;stroke:#CDCCC7;stroke-linecap:round;stroke-miterlimit:10;}
	.st1{fill:#DC4B26;}
	.st2{fill:#FFFFFF;}
</style>
<g id="Calque_3">
	<circle class="st0" cx="82.4" cy="82.5" r="79.9"/>
</g>
<g id="Calque_1">
	<circle class="st1" cx="82.4" cy="82.5" r="71.9"/>
	<path class="st2" d="M31.7,73.2c-5.7,0-10.3,4.6-10.3,10.3c0,5.7,4.6,10.3,10.3,10.3c5.7,0,10.3-4.6,10.3-10.3
		C42.1,77.8,37.4,73.2,31.7,73.2z M105.6,120.2c-5,2.9-6.6,9.2-3.8,14.1c2.9,5,9.2,6.6,14.1,3.8c4.9-2.9,6.6-9.2,3.8-14.1
		C116.9,119.1,110.6,117.4,105.6,120.2z M54.2,83.5c0-10.2,5.1-19.3,12.9-24.7l-7.6-12.7c-9.1,6.1-15.8,15.3-18.6,26.1
		c3.3,2.7,5.4,6.7,5.4,11.3c0,4.5-2.1,8.6-5.4,11.3c2.8,10.8,9.5,20.1,18.6,26.1l7.6-12.7C59.3,102.8,54.2,93.8,54.2,83.5z
		 M84.4,53.3c15.8,0,28.7,12.1,30.1,27.6l14.8-0.2c-0.7-11.4-5.7-21.6-13.4-29.2c-3.9,1.5-8.5,1.3-12.4-1c-3.9-2.3-6.4-6.1-7.1-10.3
		c-3.8-1.1-7.8-1.6-12-1.6c-7.2,0-13.9,1.7-19.9,4.7l7.2,12.9C75.6,54.3,79.9,53.3,84.4,53.3z M84.4,113.8c-4.6,0-8.9-1-12.7-2.8
		l-7.2,12.9c6,3,12.8,4.7,19.9,4.7c4.2,0,8.2-0.6,12-1.6c0.7-4.2,3.1-8,7.1-10.3c3.9-2.3,8.5-2.5,12.4-1
		c7.7-7.5,12.6-17.8,13.4-29.2l-14.8-0.2C113.2,101.7,100.2,113.8,84.4,113.8z M105.6,46.8c4.9,2.9,11.3,1.2,14.1-3.8
		c2.9-5,1.2-11.3-3.8-14.1c-4.9-2.9-11.3-1.2-14.1,3.8C99,37.7,100.7,44,105.6,46.8z"/>
</g>
<g id="Calque_2">
</g>
</svg>
